solid IR-sensors-holder_2
facet normal 0.0 0.0 -1.0
outer loop
vertex -10.0 20.0 0.0
vertex 8.483755720118406 11.987713078823587 -1.4099832412739487e-15
vertex -10.0 0.0 0.0
endloop
endfacet
facet normal 0.0 0.0 -1.0
outer loop
vertex 8.483755720118406 11.987713078823587 -1.4099832412739487e-15
vertex -10.0 20.0 0.0
vertex 9.049878492098209 12.312416294749374 -1.4099832412739487e-15
endloop
endfacet
facet normal 0.0 0.0 -1.0
outer loop
vertex 9.049878492098209 12.312416294749374 -1.4099832412739487e-15
vertex -10.0 20.0 0.0
vertex 30.0 20.0 0.0
endloop
endfacet
facet normal 0.0 0.0 -1.0
outer loop
vertex -10.0 0.0 0.0
vertex 8.483755720118406 11.987713078823587 -1.4099832412739487e-15
vertex 8.020962490100384 11.527550501427148 -1.4099832412739487e-15
endloop
endfacet
facet normal 0.0 0.0 -1.0
outer loop
vertex -10.0 0.0 0.0
vertex 8.020962490100384 11.527550501427148 -1.4099832412739487e-15
vertex 7.693037395867902 10.963287881755008 -1.4099832412739487e-15
endloop
endfacet
facet normal 0.0 0.0 -1.0
outer loop
vertex -10.0 0.0 0.0
vertex 7.693037395867902 10.963287881755008 -1.4099832412739487e-15
vertex 7.522327990671061 10.33337878484976 -1.4099832412739487e-15
endloop
endfacet
facet normal 0.0 0.0 -1.0
outer loop
vertex -10.0 0.0 0.0
vertex 7.522327990671061 10.33337878484976 -1.4099832412739487e-15
vertex 7.520467838363396 9.68075047469149 -1.4099832412739487e-15
endloop
endfacet
facet normal 0.0 0.0 -1.0
outer loop
vertex 9.049878492098209 12.312416294749374 -1.4099832412739487e-15
vertex 30.0 20.0 0.0
vertex 9.68075047469149 12.479532161636604 -1.4099832412739487e-15
endloop
endfacet
facet normal 0.0 0.0 -1.0
outer loop
vertex 9.68075047469149 12.479532161636604 -1.4099832412739487e-15
vertex 30.0 20.0 0.0
vertex 10.33337878484976 12.47767200932894 -1.4099832412739487e-15
endloop
endfacet
facet normal 0.0 0.0 -1.0
outer loop
vertex 10.33337878484976 12.47767200932894 -1.4099832412739487e-15
vertex 30.0 20.0 0.0
vertex 10.96328788175501 12.306962604132098 -1.4099832412739487e-15
endloop
endfacet
facet normal 0.0 0.0 -1.0
outer loop
vertex 10.96328788175501 12.306962604132098 -1.4099832412739487e-15
vertex 30.0 20.0 0.0
vertex 11.527550501427147 11.979037509899616 -1.4099832412739487e-15
endloop
endfacet
facet normal 0.0 0.0 -1.0
outer loop
vertex 11.527550501427147 11.979037509899616 -1.4099832412739487e-15
vertex 30.0 20.0 0.0
vertex 11.987713078823587 11.516244279881594 -1.4099832412739487e-15
endloop
endfacet
facet normal 0.0 0.0 -1.0
outer loop
vertex 11.987713078823587 11.516244279881594 -1.4099832412739487e-15
vertex 30.0 20.0 0.0
vertex 12.312416294749374 10.950121507901791 -1.4099832412739487e-15
endloop
endfacet
facet normal 0.0 0.0 -1.0
outer loop
vertex 12.312416294749374 10.950121507901791 -1.4099832412739487e-15
vertex 30.0 20.0 0.0
vertex 12.479532161636604 10.31924952530851 -1.4099832412739487e-15
endloop
endfacet
facet normal 0.0 0.0 -1.0
outer loop
vertex -10.0 0.0 0.0
vertex 9.036712118244992 7.693037395867902 -1.4099832412739487e-15
vertex 30.0 0.0 0.0
endloop
endfacet
facet normal 0.0 0.0 -1.0
outer loop
vertex 9.036712118244992 7.693037395867902 -1.4099832412739487e-15
vertex -10.0 0.0 0.0
vertex 8.472449498572853 8.020962490100384 -1.4099832412739487e-15
endloop
endfacet
facet normal 0.0 0.0 -1.0
outer loop
vertex 8.472449498572853 8.020962490100384 -1.4099832412739487e-15
vertex -10.0 0.0 0.0
vertex 8.012286921176413 8.483755720118404 -1.4099832412739487e-15
endloop
endfacet
facet normal 0.0 0.0 -1.0
outer loop
vertex 8.012286921176413 8.483755720118404 -1.4099832412739487e-15
vertex -10.0 0.0 0.0
vertex 7.687583705250626 9.049878492098209 -1.4099832412739487e-15
endloop
endfacet
facet normal 0.0 0.0 -1.0
outer loop
vertex 7.687583705250626 9.049878492098209 -1.4099832412739487e-15
vertex -10.0 0.0 0.0
vertex 7.520467838363396 9.68075047469149 -1.4099832412739487e-15
endloop
endfacet
facet normal 0.0 0.0 -1.0
outer loop
vertex 30.0 0.0 0.0
vertex 9.036712118244992 7.693037395867902 -1.4099832412739487e-15
vertex 9.666621215150242 7.522327990671061 -1.4099832412739487e-15
endloop
endfacet
facet normal 0.0 0.0 -1.0
outer loop
vertex 30.0 0.0 0.0
vertex 9.666621215150242 7.522327990671061 -1.4099832412739487e-15
vertex 10.31924952530851 7.520467838363396 -1.4099832412739487e-15
endloop
endfacet
facet normal 0.0 0.0 -1.0
outer loop
vertex 30.0 0.0 0.0
vertex 10.31924952530851 7.520467838363396 -1.4099832412739487e-15
vertex 10.950121507901791 7.687583705250626 -1.4099832412739487e-15
endloop
endfacet
facet normal 0.0 0.0 -1.0
outer loop
vertex 30.0 0.0 0.0
vertex 10.950121507901791 7.687583705250626 -1.4099832412739487e-15
vertex 11.516244279881596 8.012286921176413 -1.4099832412739487e-15
endloop
endfacet
facet normal 0.0 0.0 -1.0
outer loop
vertex 30.0 0.0 0.0
vertex 11.516244279881596 8.012286921176413 -1.4099832412739487e-15
vertex 11.979037509899616 8.472449498572853 -1.4099832412739487e-15
endloop
endfacet
facet normal 0.0 0.0 -1.0
outer loop
vertex 30.0 0.0 0.0
vertex 11.979037509899616 8.472449498572853 -1.4099832412739487e-15
vertex 12.306962604132098 9.036712118244992 -1.4099832412739487e-15
endloop
endfacet
facet normal 0.0 0.0 -1.0
outer loop
vertex 30.0 0.0 0.0
vertex 12.306962604132098 9.036712118244992 -1.4099832412739487e-15
vertex 12.47767200932894 9.666621215150242 -1.4099832412739487e-15
endloop
endfacet
facet normal 0.0 0.0 -1.0
outer loop
vertex 30.0 0.0 0.0
vertex 12.47767200932894 9.666621215150242 -1.4099832412739487e-15
vertex 12.479532161636604 10.31924952530851 -1.4099832412739487e-15
endloop
endfacet
facet normal 0.0 0.0 -1.0
outer loop
vertex 30.0 0.0 0.0
vertex 12.479532161636604 10.31924952530851 -1.4099832412739487e-15
vertex 30.0 20.0 0.0
endloop
endfacet
facet normal -0.0 1.0 -0.0
outer loop
vertex -10.0 20.0 20.0
vertex 30.0 20.0 0.0
vertex -10.0 20.0 0.0
endloop
endfacet
facet normal -0.0 1.0 -0.0
outer loop
vertex 30.0 20.0 0.0
vertex -10.0 20.0 20.0
vertex 30.0 20.0 20.0
endloop
endfacet
facet normal 1.0 0.0 0.0
outer loop
vertex 30.0 20.0 0.0
vertex 30.0 0.0 20.0
vertex 30.0 0.0 0.0
endloop
endfacet
facet normal 1.0 0.0 0.0
outer loop
vertex 30.0 0.0 20.0
vertex 30.0 20.0 0.0
vertex 30.0 20.0 20.0
endloop
endfacet
facet normal 0.0 -1.0 0.0
outer loop
vertex 30.0 0.0 20.0
vertex -10.0 0.0 0.0
vertex 30.0 0.0 0.0
endloop
endfacet
facet normal 0.0 -1.0 0.0
outer loop
vertex -10.0 0.0 0.0
vertex 30.0 0.0 20.0
vertex -10.0 0.0 20.0
endloop
endfacet
facet normal -1.0 0.0 0.0
outer loop
vertex -10.0 20.0 20.0
vertex -10.0 0.0 0.0
vertex -10.0 0.0 20.0
endloop
endfacet
facet normal -1.0 0.0 0.0
outer loop
vertex -10.0 0.0 0.0
vertex -10.0 20.0 20.0
vertex -10.0 20.0 0.0
endloop
endfacet
facet normal 0.13335151393990338 0.9910688037315752 2.333994254692437e-17
outer loop
vertex 9.666621215150242 7.522327990671061 19.999999999999996
vertex 10.31924952530851 7.520467838363396 -1.4099832412739487e-15
vertex 9.666621215150242 7.522327990671061 -1.4099832412739487e-15
endloop
endfacet
facet normal -0.12769981012340492 0.9918128646546417 2.4373800199265746e-17
outer loop
vertex 10.31924952530851 7.520467838363396 -1.4099832412739487e-15
vertex 9.666621215150242 7.522327990671061 19.999999999999996
vertex 10.31924952530851 7.520467838363396 19.999999999999996
endloop
endfacet
facet normal -0.12769981012340492 0.9918128646546417 2.4373800199265746e-17
outer loop
vertex 10.31924952530851 7.520467838363396 19.999999999999996
vertex 9.666621215150242 7.522327990671061 19.999999999999996
vertex 9.992935370229375 7.521397914517227 19.999999999999996
endloop
endfacet
facet normal -0.9999959380689146 0.0028502360729705007 1.3291294459989088e-19
outer loop
vertex 12.478602085482771 9.992935370229374 19.999999999999996
vertex 12.47767200932894 9.666621215150242 -1.4099832412739487e-15
vertex 12.47767200932894 9.666621215150242 19.999999999999996
endloop
endfacet
facet normal -0.9910688037315752 0.13335151393990338 6.29537538864929e-18
outer loop
vertex 12.47767200932894 9.666621215150242 -1.4099832412739487e-15
vertex 12.478602085482771 9.992935370229374 19.999999999999996
vertex 12.479532161636604 10.31924952530851 -1.4099832412739487e-15
endloop
endfacet
facet normal -0.9918128646546417 -0.12769981012340498 -1.78557533813957e-18
outer loop
vertex 12.479532161636604 10.31924952530851 -1.4099832412739487e-15
vertex 12.478602085482771 9.992935370229374 19.999999999999996
vertex 12.479532161636604 10.31924952530851 19.999999999999996
endloop
endfacet
facet normal -0.9651842073862049 0.2615711104313 1.2350122214391098e-17
outer loop
vertex 12.392317306730519 9.351666666697614 19.999999999999996
vertex 12.306962604132098 9.036712118244992 -1.4099832412739487e-15
vertex 12.306962604132098 9.036712118244992 19.999999999999996
endloop
endfacet
facet normal -0.9227850416528387 0.3853151527020037 1.819271715091165e-17
outer loop
vertex 12.306962604132098 9.036712118244992 -1.4099832412739487e-15
vertex 12.392317306730519 9.351666666697614 19.999999999999996
vertex 12.47767200932894 9.666621215150242 -1.4099832412739487e-15
endloop
endfacet
facet normal -0.9910688037315752 0.13335151393990338 6.29537538864929e-18
outer loop
vertex 12.47767200932894 9.666621215150242 -1.4099832412739487e-15
vertex 12.392317306730519 9.351666666697614 19.999999999999996
vertex 12.47767200932894 9.666621215150242 19.999999999999996
endloop
endfacet
facet normal -0.9666595981436514 -0.2560648771634928 -3.6735119317884525e-18
outer loop
vertex 12.39597422819299 10.634685516605147 19.999999999999996
vertex 12.479532161636604 10.31924952530851 -1.4099832412739487e-15
vertex 12.479532161636604 10.31924952530851 19.999999999999996
endloop
endfacet
facet normal -0.9918128646546417 -0.12769981012340498 -1.78557533813957e-18
outer loop
vertex 12.479532161636604 10.31924952530851 -1.4099832412739487e-15
vertex 12.39597422819299 10.634685516605147 19.999999999999996
vertex 12.312416294749374 10.950121507901791 -1.4099832412739487e-15
endloop
endfacet
facet normal -0.9249665178997496 -0.3800486031607171 -1.0920542485417661e-17
outer loop
vertex 12.312416294749374 10.950121507901791 -1.4099832412739487e-15
vertex 12.39597422819299 10.634685516605147 19.999999999999996
vertex 12.312416294749374 10.950121507901791 19.999999999999996
endloop
endfacet
facet normal 0.9249665178997499 0.3800486031607165 1.1533593599710842e-17
outer loop
vertex 7.687583705250626 9.049878492098209 -1.4099832412739487e-15
vertex 8.012286921176413 8.483755720118404 19.999999999999996
vertex 8.012286921176413 8.483755720118404 -1.4099832412739487e-15
endloop
endfacet
facet normal 0.7950852315294347 0.6064977119526381 1.3577108877628803e-17
outer loop
vertex 8.012286921176413 8.483755720118404 19.999999999999996
vertex 7.687583705250626 9.049878492098209 -1.4099832412739487e-15
vertex 7.8499353132135194 8.766817106108306 19.999999999999996
endloop
endfacet
facet normal 0.867447004085416 0.49752959218848136 1.1600464212499984e-17
outer loop
vertex 7.8499353132135194 8.766817106108306 19.999999999999996
vertex 7.687583705250626 9.049878492098209 -1.4099832412739487e-15
vertex 7.687583705250626 9.049878492098209 19.999999999999996
endloop
endfacet
facet normal -0.8645967680124443 0.5024663458804335 2.3724029653005986e-17
outer loop
vertex 12.143000057015856 8.75458080840892 19.999999999999996
vertex 11.979037509899616 8.472449498572853 -1.4099832412739487e-15
vertex 11.979037509899616 8.472449498572853 19.999999999999996
endloop
endfacet
facet normal -0.7916150039598463 0.6110202005708589 1.949479432908522e-17
outer loop
vertex 11.979037509899616 8.472449498572853 -1.4099832412739487e-15
vertex 12.143000057015856 8.75458080840892 19.999999999999996
vertex 12.306962604132098 9.036712118244992 -1.4099832412739487e-15
endloop
endfacet
facet normal -0.9227850416528387 0.3853151527020037 1.819271715091165e-17
outer loop
vertex 12.306962604132098 9.036712118244992 -1.4099832412739487e-15
vertex 12.143000057015856 8.75458080840892 19.999999999999996
vertex 12.306962604132098 9.036712118244992 19.999999999999996
endloop
endfacet
facet normal -0.6064977119526384 0.7950852315294347 1.7730438368772994e-17
outer loop
vertex 11.516244279881596 8.012286921176413 19.999999999999996
vertex 11.979037509899616 8.472449498572853 -1.4099832412739487e-15
vertex 11.516244279881596 8.012286921176413 -1.4099832412739487e-15
endloop
endfacet
facet normal -0.7916150039598463 0.6110202005708589 1.949479432908522e-17
outer loop
vertex 11.979037509899616 8.472449498572853 -1.4099832412739487e-15
vertex 11.516244279881596 8.012286921176413 19.999999999999996
vertex 11.979037509899616 8.472449498572853 19.999999999999996
endloop
endfacet
facet normal -0.7916150039598463 0.6110202005708589 1.949479432908522e-17
outer loop
vertex 11.979037509899616 8.472449498572853 19.999999999999996
vertex 11.516244279881596 8.012286921176413 19.999999999999996
vertex 11.75265058077082 8.24734941922918 19.999999999999996
endloop
endfacet
facet normal -0.38004860316071665 0.9249665178997499 2.2725013725060988e-17
outer loop
vertex 10.950121507901791 7.687583705250626 19.999999999999996
vertex 11.516244279881596 8.012286921176413 -1.4099832412739487e-15
vertex 10.950121507901791 7.687583705250626 -1.4099832412739487e-15
endloop
endfacet
facet normal -0.6064977119526384 0.7950852315294347 1.7730438368772994e-17
outer loop
vertex 11.516244279881596 8.012286921176413 -1.4099832412739487e-15
vertex 10.950121507901791 7.687583705250626 19.999999999999996
vertex 11.516244279881596 8.012286921176413 19.999999999999996
endloop
endfacet
facet normal -0.6064977119526384 0.7950852315294347 1.7730438368772994e-17
outer loop
vertex 11.516244279881596 8.012286921176413 19.999999999999996
vertex 10.950121507901791 7.687583705250626 19.999999999999996
vertex 11.233182893891694 7.849935313213519 19.999999999999996
endloop
endfacet
facet normal -0.12769981012340492 0.9918128646546417 2.4373800199265746e-17
outer loop
vertex 10.31924952530851 7.520467838363396 19.999999999999996
vertex 10.950121507901791 7.687583705250626 -1.4099832412739487e-15
vertex 10.31924952530851 7.520467838363396 -1.4099832412739487e-15
endloop
endfacet
facet normal -0.38004860316071665 0.9249665178997499 2.2725013725060988e-17
outer loop
vertex 10.950121507901791 7.687583705250626 -1.4099832412739487e-15
vertex 10.31924952530851 7.520467838363396 19.999999999999996
vertex 10.950121507901791 7.687583705250626 19.999999999999996
endloop
endfacet
facet normal -0.38004860316071665 0.9249665178997499 2.2725013725060988e-17
outer loop
vertex 10.950121507901791 7.687583705250626 19.999999999999996
vertex 10.31924952530851 7.520467838363396 19.999999999999996
vertex 10.634685516605149 7.604025771807009 19.999999999999996
endloop
endfacet
facet normal 0.9918128646546417 0.12769981012340473 5.649796557970445e-18
outer loop
vertex 7.520467838363396 9.68075047469149 -1.4099832412739487e-15
vertex 7.687583705250626 9.049878492098209 19.999999999999996
vertex 7.687583705250626 9.049878492098209 -1.4099832412739487e-15
endloop
endfacet
facet normal 0.9249665178997499 0.3800486031607165 1.1533593599710842e-17
outer loop
vertex 7.687583705250626 9.049878492098209 19.999999999999996
vertex 7.520467838363396 9.68075047469149 -1.4099832412739487e-15
vertex 7.60402577180701 9.36531448339485 19.999999999999996
endloop
endfacet
facet normal 0.9666595981436514 0.2560648771634923 1.1269380002714387e-17
outer loop
vertex 7.60402577180701 9.36531448339485 19.999999999999996
vertex 7.520467838363396 9.68075047469149 -1.4099832412739487e-15
vertex 7.520467838363396 9.68075047469149 19.999999999999996
endloop
endfacet
facet normal 0.9910688037315752 -0.1333515139399037 -1.5713780393317116e-18
outer loop
vertex 7.522327990671061 10.33337878484976 -1.4099832412739487e-15
vertex 7.520467838363396 9.68075047469149 19.999999999999996
vertex 7.520467838363396 9.68075047469149 -1.4099832412739487e-15
endloop
endfacet
facet normal 0.9918128646546417 0.12769981012340473 5.649796557970445e-18
outer loop
vertex 7.520467838363396 9.68075047469149 19.999999999999996
vertex 7.522327990671061 10.33337878484976 -1.4099832412739487e-15
vertex 7.5213979145172285 10.007064629770625 19.999999999999996
endloop
endfacet
facet normal 0.9999959380689146 -0.0028502360729705007 -6.645647229990816e-20
outer loop
vertex 7.5213979145172285 10.007064629770625 19.999999999999996
vertex 7.522327990671061 10.33337878484976 -1.4099832412739487e-15
vertex 7.522327990671061 10.33337878484976 19.999999999999996
endloop
endfacet
facet normal 0.9227850416528389 -0.38531515270200356 -4.344320633745559e-18
outer loop
vertex 7.693037395867902 10.963287881755008 -1.4099832412739487e-15
vertex 7.522327990671061 10.33337878484976 19.999999999999996
vertex 7.522327990671061 10.33337878484976 -1.4099832412739487e-15
endloop
endfacet
facet normal 0.9910688037315752 -0.1333515139399037 -1.5713780393317116e-18
outer loop
vertex 7.522327990671061 10.33337878484976 19.999999999999996
vertex 7.693037395867902 10.963287881755008 -1.4099832412739487e-15
vertex 7.607682693269481 10.648333333302384 19.999999999999996
endloop
endfacet
facet normal 0.9651842073862049 -0.2615711104313006 -3.0494128924422502e-18
outer loop
vertex 7.607682693269481 10.648333333302384 19.999999999999996
vertex 7.693037395867902 10.963287881755008 -1.4099832412739487e-15
vertex 7.693037395867902 10.963287881755008 19.999999999999996
endloop
endfacet
facet normal 0.7916150039598455 -0.6110202005708597 4.92515958666807e-18
outer loop
vertex 8.020962490100384 11.527550501427148 -1.4099832412739487e-15
vertex 7.693037395867902 10.963287881755008 19.999999999999996
vertex 7.693037395867902 10.963287881755008 -1.4099832412739487e-15
endloop
endfacet
facet normal 0.9227850416528389 -0.38531515270200356 -4.344320633745559e-18
outer loop
vertex 7.693037395867902 10.963287881755008 19.999999999999996
vertex 8.020962490100384 11.527550501427148 -1.4099832412739487e-15
vertex 7.856999942984143 11.245419191591077 19.999999999999996
endloop
endfacet
facet normal 0.8645967680124449 -0.5024663458804326 -5.564895844532252e-18
outer loop
vertex 7.856999942984143 11.245419191591077 19.999999999999996
vertex 8.020962490100384 11.527550501427148 -1.4099832412739487e-15
vertex 8.020962490100384 11.527550501427148 19.999999999999996
endloop
endfacet
facet normal 0.6064977119526374 -0.7950852315294353 4.952733154157749e-18
outer loop
vertex 8.483755720118406 11.987713078823587 19.999999999999996
vertex 8.020962490100384 11.527550501427148 -1.4099832412739487e-15
vertex 8.483755720118406 11.987713078823587 -1.4099832412739487e-15
endloop
endfacet
facet normal 0.7916150039598455 -0.6110202005708597 4.92515958666807e-18
outer loop
vertex 8.020962490100384 11.527550501427148 -1.4099832412739487e-15
vertex 8.483755720118406 11.987713078823587 19.999999999999996
vertex 8.020962490100384 11.527550501427148 19.999999999999996
endloop
endfacet
facet normal 0.7916150039598455 -0.6110202005708597 4.92515958666807e-18
outer loop
vertex 8.020962490100384 11.527550501427148 19.999999999999996
vertex 8.483755720118406 11.987713078823587 19.999999999999996
vertex 8.24734941922918 11.75265058077082 19.999999999999996
endloop
endfacet
facet normal 0.3800486031607169 -0.9249665178997497 -1.1623724741340607e-17
outer loop
vertex 9.049878492098209 12.312416294749374 19.999999999999996
vertex 8.483755720118406 11.987713078823587 -1.4099832412739487e-15
vertex 9.049878492098209 12.312416294749374 -1.4099832412739487e-15
endloop
endfacet
facet normal 0.6064977119526374 -0.7950852315294353 4.952733154157749e-18
outer loop
vertex 8.483755720118406 11.987713078823587 -1.4099832412739487e-15
vertex 9.049878492098209 12.312416294749374 19.999999999999996
vertex 8.483755720118406 11.987713078823587 19.999999999999996
endloop
endfacet
facet normal 0.6064977119526374 -0.7950852315294353 4.952733154157749e-18
outer loop
vertex 8.483755720118406 11.987713078823587 19.999999999999996
vertex 9.049878492098209 12.312416294749374 19.999999999999996
vertex 8.766817106108308 12.15006468678648 19.999999999999996
endloop
endfacet
facet normal 0.12769981012340473 -0.9918128646546417 -2.06964670020523e-17
outer loop
vertex 9.68075047469149 12.479532161636604 19.999999999999996
vertex 9.049878492098209 12.312416294749374 -1.4099832412739487e-15
vertex 9.68075047469149 12.479532161636604 -1.4099832412739487e-15
endloop
endfacet
facet normal 0.3800486031607169 -0.9249665178997497 -1.1623724741340607e-17
outer loop
vertex 9.049878492098209 12.312416294749374 -1.4099832412739487e-15
vertex 9.68075047469149 12.479532161636604 19.999999999999996
vertex 9.049878492098209 12.312416294749374 19.999999999999996
endloop
endfacet
facet normal 0.3800486031607169 -0.9249665178997497 -1.1623724741340607e-17
outer loop
vertex 9.049878492098209 12.312416294749374 19.999999999999996
vertex 9.68075047469149 12.479532161636604 19.999999999999996
vertex 9.365314483394851 12.395974228192989 19.999999999999996
endloop
endfacet
facet normal -0.13335151393990338 -0.9910688037315752 -2.3342766597115468e-17
outer loop
vertex 10.33337878484976 12.47767200932894 19.999999999999996
vertex 9.68075047469149 12.479532161636604 -1.4099832412739487e-15
vertex 10.33337878484976 12.47767200932894 -1.4099832412739487e-15
endloop
endfacet
facet normal 0.12769981012340473 -0.9918128646546417 -2.06964670020523e-17
outer loop
vertex 9.68075047469149 12.479532161636604 -1.4099832412739487e-15
vertex 10.33337878484976 12.47767200932894 19.999999999999996
vertex 9.68075047469149 12.479532161636604 19.999999999999996
endloop
endfacet
facet normal 0.12769981012340473 -0.9918128646546417 -2.06964670020523e-17
outer loop
vertex 9.68075047469149 12.479532161636604 19.999999999999996
vertex 10.33337878484976 12.47767200932894 19.999999999999996
vertex 10.007064629770625 12.47860208548277 19.999999999999996
endloop
endfacet
facet normal -0.38531515270200434 -0.9227850416528387 -2.927184683804702e-17
outer loop
vertex 10.96328788175501 12.306962604132098 19.999999999999996
vertex 10.33337878484976 12.47767200932894 -1.4099832412739487e-15
vertex 10.96328788175501 12.306962604132098 -1.4099832412739487e-15
endloop
endfacet
facet normal -0.13335151393990338 -0.9910688037315752 -2.3342766597115468e-17
outer loop
vertex 10.33337878484976 12.47767200932894 -1.4099832412739487e-15
vertex 10.96328788175501 12.306962604132098 19.999999999999996
vertex 10.33337878484976 12.47767200932894 19.999999999999996
endloop
endfacet
facet normal -0.13335151393990338 -0.9910688037315752 -2.3342766597115468e-17
outer loop
vertex 10.33337878484976 12.47767200932894 19.999999999999996
vertex 10.96328788175501 12.306962604132098 19.999999999999996
vertex 10.648333333302386 12.392317306730517 19.999999999999996
endloop
endfacet
facet normal -0.6110202005708599 -0.7916150039598454 -1.408256000044524e-17
outer loop
vertex 11.527550501427147 11.979037509899616 19.999999999999996
vertex 10.96328788175501 12.306962604132098 -1.4099832412739487e-15
vertex 11.527550501427147 11.979037509899616 -1.4099832412739487e-15
endloop
endfacet
facet normal -0.38531515270200434 -0.9227850416528387 -2.927184683804702e-17
outer loop
vertex 10.96328788175501 12.306962604132098 -1.4099832412739487e-15
vertex 11.527550501427147 11.979037509899616 19.999999999999996
vertex 10.96328788175501 12.306962604132098 19.999999999999996
endloop
endfacet
facet normal -0.38531515270200434 -0.9227850416528387 -2.927184683804702e-17
outer loop
vertex 10.96328788175501 12.306962604132098 19.999999999999996
vertex 11.527550501427147 11.979037509899616 19.999999999999996
vertex 11.245419191591079 12.143000057015854 19.999999999999996
endloop
endfacet
facet normal -0.7091193302227138 -0.7050884877123508 7.33301666707027e-18
outer loop
vertex 11.75265058077082 11.75265058077082 19.999999999999996
vertex 11.987713078823587 11.516244279881594 -1.4099832412739487e-15
vertex 11.987713078823587 11.516244279881594 19.999999999999996
endloop
endfacet
facet normal -0.7950852315294348 -0.6064977119526379 -5.3697907352863605e-18
outer loop
vertex 11.987713078823587 11.516244279881594 -1.4099832412739487e-15
vertex 11.75265058077082 11.75265058077082 19.999999999999996
vertex 11.527550501427147 11.979037509899616 -1.4099832412739487e-15
endloop
endfacet
facet normal -0.6110202005708599 -0.7916150039598454 -1.408256000044524e-17
outer loop
vertex 11.527550501427147 11.979037509899616 -1.4099832412739487e-15
vertex 11.75265058077082 11.75265058077082 19.999999999999996
vertex 11.527550501427147 11.979037509899616 19.999999999999996
endloop
endfacet
facet normal -0.8674470040854154 -0.49752959218848214 -1.7980719529374987e-17
outer loop
vertex 12.15006468678648 11.23318289389169 19.999999999999996
vertex 12.312416294749374 10.950121507901791 -1.4099832412739487e-15
vertex 12.312416294749374 10.950121507901791 19.999999999999996
endloop
endfacet
facet normal -0.9249665178997496 -0.3800486031607171 -1.0920542485417661e-17
outer loop
vertex 12.312416294749374 10.950121507901791 -1.4099832412739487e-15
vertex 12.15006468678648 11.23318289389169 19.999999999999996
vertex 11.987713078823587 11.516244279881594 -1.4099832412739487e-15
endloop
endfacet
facet normal -0.7950852315294348 -0.6064977119526379 -5.3697907352863605e-18
outer loop
vertex 11.987713078823587 11.516244279881594 -1.4099832412739487e-15
vertex 12.15006468678648 11.23318289389169 19.999999999999996
vertex 11.987713078823587 11.516244279881594 19.999999999999996
endloop
endfacet
facet normal 0.7950852315294347 0.6064977119526381 1.3577108877628803e-17
outer loop
vertex 8.012286921176413 8.483755720118404 -1.4099832412739487e-15
vertex 8.472449498572853 8.020962490100384 19.999999999999996
vertex 8.472449498572853 8.020962490100384 -1.4099832412739487e-15
endloop
endfacet
facet normal 0.611020200570859 0.7916150039598462 2.3801659256636527e-17
outer loop
vertex 8.472449498572853 8.020962490100384 19.999999999999996
vertex 8.012286921176413 8.483755720118404 -1.4099832412739487e-15
vertex 8.24734941922918 8.24734941922918 19.999999999999996
endloop
endfacet
facet normal 0.7091193302227128 0.7050884877123519 1.5321445445575655e-17
outer loop
vertex 8.24734941922918 8.24734941922918 19.999999999999996
vertex 8.012286921176413 8.483755720118404 -1.4099832412739487e-15
vertex 8.012286921176413 8.483755720118404 19.999999999999996
endloop
endfacet
facet normal 0.3853151527020037 0.9227850416528387 2.7565972807648048e-17
outer loop
vertex 9.036712118244992 7.693037395867902 19.999999999999996
vertex 9.666621215150242 7.522327990671061 -1.4099832412739487e-15
vertex 9.036712118244992 7.693037395867902 -1.4099832412739487e-15
endloop
endfacet
facet normal 0.13335151393990338 0.9910688037315752 2.333994254692437e-17
outer loop
vertex 9.666621215150242 7.522327990671061 -1.4099832412739487e-15
vertex 9.036712118244992 7.693037395867902 19.999999999999996
vertex 9.666621215150242 7.522327990671061 19.999999999999996
endloop
endfacet
facet normal 0.13335151393990338 0.9910688037315752 2.333994254692437e-17
outer loop
vertex 9.666621215150242 7.522327990671061 19.999999999999996
vertex 9.036712118244992 7.693037395867902 19.999999999999996
vertex 9.351666666697616 7.6076826932694805 19.999999999999996
endloop
endfacet
facet normal 0.611020200570859 0.7916150039598462 2.3801659256636527e-17
outer loop
vertex 8.472449498572853 8.020962490100384 19.999999999999996
vertex 9.036712118244992 7.693037395867902 -1.4099832412739487e-15
vertex 8.472449498572853 8.020962490100384 -1.4099832412739487e-15
endloop
endfacet
facet normal 0.3853151527020037 0.9227850416528387 2.7565972807648048e-17
outer loop
vertex 9.036712118244992 7.693037395867902 -1.4099832412739487e-15
vertex 8.472449498572853 8.020962490100384 19.999999999999996
vertex 9.036712118244992 7.693037395867902 19.999999999999996
endloop
endfacet
facet normal 0.3853151527020037 0.9227850416528387 2.7565972807648048e-17
outer loop
vertex 9.036712118244992 7.693037395867902 19.999999999999996
vertex 8.472449498572853 8.020962490100384 19.999999999999996
vertex 8.754580808408921 7.856999942984142 19.999999999999996
endloop
endfacet
facet normal 3.351910438288385e-17 3.351910438288318e-17 1.0
outer loop
vertex -10.0 0.0 20.0
vertex 8.472449498572853 8.020962490100384 19.999999999999996
vertex -10.0 20.0 20.0
endloop
endfacet
facet normal 3.351910438288385e-17 3.351910438288318e-17 1.0
outer loop
vertex 8.472449498572853 8.020962490100384 19.999999999999996
vertex -10.0 0.0 20.0
vertex 8.754580808408921 7.856999942984142 19.999999999999996
endloop
endfacet
facet normal 3.351910438288385e-17 3.351910438288318e-17 1.0
outer loop
vertex 8.754580808408921 7.856999942984142 19.999999999999996
vertex -10.0 0.0 20.0
vertex 9.036712118244992 7.693037395867902 19.999999999999996
endloop
endfacet
facet normal 3.351910438288385e-17 3.351910438288318e-17 1.0
outer loop
vertex 9.036712118244992 7.693037395867902 19.999999999999996
vertex -10.0 0.0 20.0
vertex 30.0 0.0 20.0
endloop
endfacet
facet normal 3.351910438288385e-17 3.351910438288318e-17 1.0
outer loop
vertex -10.0 20.0 20.0
vertex 8.472449498572853 8.020962490100384 19.999999999999996
vertex 8.24734941922918 8.24734941922918 19.999999999999996
endloop
endfacet
facet normal 3.351910438288385e-17 3.351910438288318e-17 1.0
outer loop
vertex -10.0 20.0 20.0
vertex 8.24734941922918 8.24734941922918 19.999999999999996
vertex 8.012286921176413 8.483755720118404 19.999999999999996
endloop
endfacet
facet normal 3.351910438288385e-17 3.351910438288318e-17 1.0
outer loop
vertex -10.0 20.0 20.0
vertex 8.012286921176413 8.483755720118404 19.999999999999996
vertex 7.8499353132135194 8.766817106108306 19.999999999999996
endloop
endfacet
facet normal 3.351910438288385e-17 3.351910438288318e-17 1.0
outer loop
vertex -10.0 20.0 20.0
vertex 7.8499353132135194 8.766817106108306 19.999999999999996
vertex 7.687583705250626 9.049878492098209 19.999999999999996
endloop
endfacet
facet normal 3.351910438288385e-17 3.351910438288318e-17 1.0
outer loop
vertex -10.0 20.0 20.0
vertex 7.687583705250626 9.049878492098209 19.999999999999996
vertex 7.60402577180701 9.36531448339485 19.999999999999996
endloop
endfacet
facet normal 3.351910438288385e-17 3.351910438288318e-17 1.0
outer loop
vertex -10.0 20.0 20.0
vertex 7.60402577180701 9.36531448339485 19.999999999999996
vertex 7.520467838363396 9.68075047469149 19.999999999999996
endloop
endfacet
facet normal 3.351910438288385e-17 3.351910438288318e-17 1.0
outer loop
vertex 9.036712118244992 7.693037395867902 19.999999999999996
vertex 30.0 0.0 20.0
vertex 9.351666666697616 7.6076826932694805 19.999999999999996
endloop
endfacet
facet normal 3.351910438288385e-17 3.351910438288318e-17 1.0
outer loop
vertex 9.351666666697616 7.6076826932694805 19.999999999999996
vertex 30.0 0.0 20.0
vertex 9.666621215150242 7.522327990671061 19.999999999999996
endloop
endfacet
facet normal 3.351910438288385e-17 3.351910438288318e-17 1.0
outer loop
vertex 9.666621215150242 7.522327990671061 19.999999999999996
vertex 30.0 0.0 20.0
vertex 9.992935370229375 7.521397914517227 19.999999999999996
endloop
endfacet
facet normal 3.351910438288385e-17 3.351910438288318e-17 1.0
outer loop
vertex 9.992935370229375 7.521397914517227 19.999999999999996
vertex 30.0 0.0 20.0
vertex 10.31924952530851 7.520467838363396 19.999999999999996
endloop
endfacet
facet normal 3.351910438288385e-17 3.351910438288318e-17 1.0
outer loop
vertex 10.31924952530851 7.520467838363396 19.999999999999996
vertex 30.0 0.0 20.0
vertex 10.634685516605149 7.604025771807009 19.999999999999996
endloop
endfacet
facet normal 3.351910438288385e-17 3.351910438288318e-17 1.0
outer loop
vertex 10.634685516605149 7.604025771807009 19.999999999999996
vertex 30.0 0.0 20.0
vertex 10.950121507901791 7.687583705250626 19.999999999999996
endloop
endfacet
facet normal 3.351910438288385e-17 3.351910438288318e-17 1.0
outer loop
vertex 10.950121507901791 7.687583705250626 19.999999999999996
vertex 30.0 0.0 20.0
vertex 11.233182893891694 7.849935313213519 19.999999999999996
endloop
endfacet
facet normal 3.351910438288385e-17 3.351910438288318e-17 1.0
outer loop
vertex 11.233182893891694 7.849935313213519 19.999999999999996
vertex 30.0 0.0 20.0
vertex 11.516244279881596 8.012286921176413 19.999999999999996
endloop
endfacet
facet normal 3.351910438288385e-17 3.351910438288318e-17 1.0
outer loop
vertex 11.516244279881596 8.012286921176413 19.999999999999996
vertex 30.0 0.0 20.0
vertex 11.75265058077082 8.24734941922918 19.999999999999996
endloop
endfacet
facet normal 3.351910438288385e-17 3.351910438288318e-17 1.0
outer loop
vertex 11.75265058077082 8.24734941922918 19.999999999999996
vertex 30.0 0.0 20.0
vertex 11.979037509899616 8.472449498572853 19.999999999999996
endloop
endfacet
facet normal 3.351910438288385e-17 3.351910438288318e-17 1.0
outer loop
vertex 11.979037509899616 8.472449498572853 19.999999999999996
vertex 30.0 0.0 20.0
vertex 12.143000057015856 8.75458080840892 19.999999999999996
endloop
endfacet
facet normal 3.351910438288385e-17 3.351910438288318e-17 1.0
outer loop
vertex 12.143000057015856 8.75458080840892 19.999999999999996
vertex 30.0 0.0 20.0
vertex 12.306962604132098 9.036712118244992 19.999999999999996
endloop
endfacet
facet normal 3.351910438288385e-17 3.351910438288318e-17 1.0
outer loop
vertex 12.306962604132098 9.036712118244992 19.999999999999996
vertex 30.0 0.0 20.0
vertex 12.392317306730519 9.351666666697614 19.999999999999996
endloop
endfacet
facet normal 3.351910438288385e-17 3.351910438288318e-17 1.0
outer loop
vertex 12.392317306730519 9.351666666697614 19.999999999999996
vertex 30.0 0.0 20.0
vertex 12.47767200932894 9.666621215150242 19.999999999999996
endloop
endfacet
facet normal 3.351910438288385e-17 3.351910438288318e-17 1.0
outer loop
vertex 12.47767200932894 9.666621215150242 19.999999999999996
vertex 30.0 0.0 20.0
vertex 12.478602085482771 9.992935370229374 19.999999999999996
endloop
endfacet
facet normal 3.351910438288385e-17 3.351910438288318e-17 1.0
outer loop
vertex 12.478602085482771 9.992935370229374 19.999999999999996
vertex 30.0 0.0 20.0
vertex 12.479532161636604 10.31924952530851 19.999999999999996
endloop
endfacet
facet normal 3.351910438288385e-17 3.351910438288318e-17 1.0
outer loop
vertex -10.0 20.0 20.0
vertex 9.049878492098209 12.312416294749374 19.999999999999996
vertex 30.0 20.0 20.0
endloop
endfacet
facet normal 3.351910438288385e-17 3.351910438288318e-17 1.0
outer loop
vertex 9.049878492098209 12.312416294749374 19.999999999999996
vertex -10.0 20.0 20.0
vertex 8.483755720118406 11.987713078823587 19.999999999999996
endloop
endfacet
facet normal 3.351910438288385e-17 3.351910438288318e-17 1.0
outer loop
vertex 8.483755720118406 11.987713078823587 19.999999999999996
vertex -10.0 20.0 20.0
vertex 8.24734941922918 11.75265058077082 19.999999999999996
endloop
endfacet
facet normal 3.351910438288385e-17 3.351910438288318e-17 1.0
outer loop
vertex 8.24734941922918 11.75265058077082 19.999999999999996
vertex -10.0 20.0 20.0
vertex 8.020962490100384 11.527550501427148 19.999999999999996
endloop
endfacet
facet normal 3.351910438288385e-17 3.351910438288318e-17 1.0
outer loop
vertex 8.020962490100384 11.527550501427148 19.999999999999996
vertex -10.0 20.0 20.0
vertex 7.693037395867902 10.963287881755008 19.999999999999996
endloop
endfacet
facet normal 3.351910438288385e-17 3.351910438288318e-17 1.0
outer loop
vertex 7.693037395867902 10.963287881755008 19.999999999999996
vertex -10.0 20.0 20.0
vertex 7.522327990671061 10.33337878484976 19.999999999999996
endloop
endfacet
facet normal 3.351910438288385e-17 3.351910438288318e-17 1.0
outer loop
vertex 7.522327990671061 10.33337878484976 19.999999999999996
vertex -10.0 20.0 20.0
vertex 7.520467838363396 9.68075047469149 19.999999999999996
endloop
endfacet
facet normal 3.351910438288385e-17 3.351910438288318e-17 1.0
outer loop
vertex 7.522327990671061 10.33337878484976 19.999999999999996
vertex 7.520467838363396 9.68075047469149 19.999999999999996
vertex 7.5213979145172285 10.007064629770625 19.999999999999996
endloop
endfacet
facet normal 3.351910438288385e-17 3.351910438288318e-17 1.0
outer loop
vertex 7.693037395867902 10.963287881755008 19.999999999999996
vertex 7.522327990671061 10.33337878484976 19.999999999999996
vertex 7.607682693269481 10.648333333302384 19.999999999999996
endloop
endfacet
facet normal 3.351910438288385e-17 3.351910438288318e-17 1.0
outer loop
vertex 8.020962490100384 11.527550501427148 19.999999999999996
vertex 7.693037395867902 10.963287881755008 19.999999999999996
vertex 7.856999942984143 11.245419191591077 19.999999999999996
endloop
endfacet
facet normal 3.351910438288385e-17 3.351910438288318e-17 1.0
outer loop
vertex 9.049878492098209 12.312416294749374 19.999999999999996
vertex 8.483755720118406 11.987713078823587 19.999999999999996
vertex 8.766817106108308 12.15006468678648 19.999999999999996
endloop
endfacet
facet normal 3.351910438288385e-17 3.351910438288318e-17 1.0
outer loop
vertex 30.0 20.0 20.0
vertex 9.049878492098209 12.312416294749374 19.999999999999996
vertex 9.365314483394851 12.395974228192989 19.999999999999996
endloop
endfacet
facet normal 3.351910438288385e-17 3.351910438288318e-17 1.0
outer loop
vertex 30.0 20.0 20.0
vertex 9.365314483394851 12.395974228192989 19.999999999999996
vertex 9.68075047469149 12.479532161636604 19.999999999999996
endloop
endfacet
facet normal 3.351910438288385e-17 3.351910438288318e-17 1.0
outer loop
vertex 30.0 20.0 20.0
vertex 9.68075047469149 12.479532161636604 19.999999999999996
vertex 10.007064629770625 12.47860208548277 19.999999999999996
endloop
endfacet
facet normal 3.351910438288385e-17 3.351910438288318e-17 1.0
outer loop
vertex 30.0 20.0 20.0
vertex 10.007064629770625 12.47860208548277 19.999999999999996
vertex 10.33337878484976 12.47767200932894 19.999999999999996
endloop
endfacet
facet normal 3.351910438288385e-17 3.351910438288318e-17 1.0
outer loop
vertex 30.0 20.0 20.0
vertex 10.33337878484976 12.47767200932894 19.999999999999996
vertex 10.648333333302386 12.392317306730517 19.999999999999996
endloop
endfacet
facet normal 3.351910438288385e-17 3.351910438288318e-17 1.0
outer loop
vertex 30.0 20.0 20.0
vertex 10.648333333302386 12.392317306730517 19.999999999999996
vertex 10.96328788175501 12.306962604132098 19.999999999999996
endloop
endfacet
facet normal 3.351910438288385e-17 3.351910438288318e-17 1.0
outer loop
vertex 30.0 20.0 20.0
vertex 10.96328788175501 12.306962604132098 19.999999999999996
vertex 11.245419191591079 12.143000057015854 19.999999999999996
endloop
endfacet
facet normal 3.351910438288385e-17 3.351910438288318e-17 1.0
outer loop
vertex 30.0 20.0 20.0
vertex 11.245419191591079 12.143000057015854 19.999999999999996
vertex 11.527550501427147 11.979037509899616 19.999999999999996
endloop
endfacet
facet normal 3.351910438288385e-17 3.351910438288318e-17 1.0
outer loop
vertex 30.0 20.0 20.0
vertex 11.527550501427147 11.979037509899616 19.999999999999996
vertex 11.75265058077082 11.75265058077082 19.999999999999996
endloop
endfacet
facet normal 3.351910438288385e-17 3.351910438288318e-17 1.0
outer loop
vertex 30.0 20.0 20.0
vertex 11.75265058077082 11.75265058077082 19.999999999999996
vertex 11.987713078823587 11.516244279881594 19.999999999999996
endloop
endfacet
facet normal 3.351910438288385e-17 3.351910438288318e-17 1.0
outer loop
vertex 30.0 20.0 20.0
vertex 11.987713078823587 11.516244279881594 19.999999999999996
vertex 12.15006468678648 11.23318289389169 19.999999999999996
endloop
endfacet
facet normal 3.351910438288385e-17 3.351910438288318e-17 1.0
outer loop
vertex 30.0 20.0 20.0
vertex 12.15006468678648 11.23318289389169 19.999999999999996
vertex 12.312416294749374 10.950121507901791 19.999999999999996
endloop
endfacet
facet normal 3.351910438288385e-17 3.351910438288318e-17 1.0
outer loop
vertex 30.0 20.0 20.0
vertex 12.312416294749374 10.950121507901791 19.999999999999996
vertex 12.39597422819299 10.634685516605147 19.999999999999996
endloop
endfacet
facet normal 3.351910438288385e-17 3.351910438288318e-17 1.0
outer loop
vertex 30.0 20.0 20.0
vertex 12.39597422819299 10.634685516605147 19.999999999999996
vertex 12.479532161636604 10.31924952530851 19.999999999999996
endloop
endfacet
facet normal 3.351910438288385e-17 3.351910438288318e-17 1.0
outer loop
vertex 30.0 20.0 20.0
vertex 12.479532161636604 10.31924952530851 19.999999999999996
vertex 30.0 0.0 20.0
endloop
endfacet
facet normal -0.0 -0.0 1.0
outer loop
vertex 9.351666666697616 7.6076826932694805 19.999999999999996
vertex 8.754580808408921 7.856999942984142 19.999999999999996
vertex 9.036712118244992 7.693037395867902 19.999999999999996
endloop
endfacet
facet normal -0.0 -0.0 1.0
outer loop
vertex 8.24734941922918 8.24734941922918 19.999999999999996
vertex 7.8499353132135194 8.766817106108306 19.999999999999996
vertex 8.012286921176413 8.483755720118404 19.999999999999996
endloop
endfacet
facet normal -0.0 -0.0 1.0
outer loop
vertex 8.754580808408921 7.856999942984142 19.999999999999996
vertex 8.24734941922918 8.24734941922918 19.999999999999996
vertex 8.472449498572853 8.020962490100384 19.999999999999996
endloop
endfacet
facet normal -0.0 -0.0 1.0
outer loop
vertex 7.8499353132135194 8.766817106108306 19.999999999999996
vertex 7.60402577180701 9.36531448339485 19.999999999999996
vertex 7.687583705250626 9.049878492098209 19.999999999999996
endloop
endfacet
facet normal -0.0 -0.0 1.0
outer loop
vertex 9.992935370229375 7.521397914517227 19.999999999999996
vertex 9.351666666697616 7.6076826932694805 19.999999999999996
vertex 9.666621215150242 7.522327990671061 19.999999999999996
endloop
endfacet
facet normal -0.0 -0.0 1.0
outer loop
vertex 9.365314483394851 12.395974228192989 19.999999999999996
vertex 9.049878492098209 12.312416294749374 19.999999999999996
vertex 8.766817106108308 12.15006468678648 19.999999999999996
endloop
endfacet
facet normal -0.0 -0.0 1.0
outer loop
vertex 7.607682693269481 10.648333333302384 19.999999999999996
vertex 7.522327990671061 10.33337878484976 19.999999999999996
vertex 7.5213979145172285 10.007064629770625 19.999999999999996
endloop
endfacet
facet normal -0.0 -0.0 1.0
outer loop
vertex 7.60402577180701 9.36531448339485 19.999999999999996
vertex 7.5213979145172285 10.007064629770625 19.999999999999996
vertex 7.520467838363396 9.68075047469149 19.999999999999996
endloop
endfacet
facet normal -0.0 -0.0 1.0
outer loop
vertex 10.007064629770625 12.47860208548277 19.999999999999996
vertex 9.68075047469149 12.479532161636604 19.999999999999996
vertex 9.365314483394851 12.395974228192989 19.999999999999996
endloop
endfacet
facet normal -0.0 -0.0 1.0
outer loop
vertex 11.75265058077082 8.24734941922918 19.999999999999996
vertex 11.233182893891694 7.849935313213519 19.999999999999996
vertex 11.516244279881596 8.012286921176413 19.999999999999996
endloop
endfacet
facet normal -0.0 -0.0 1.0
outer loop
vertex 12.479532161636604 10.31924952530851 19.999999999999996
vertex 12.39597422819299 10.634685516605147 19.999999999999996
vertex 12.478602085482771 9.992935370229374 19.999999999999996
endloop
endfacet
facet normal -0.0 -0.0 1.0
outer loop
vertex 11.233182893891694 7.849935313213519 19.999999999999996
vertex 10.634685516605149 7.604025771807009 19.999999999999996
vertex 10.950121507901791 7.687583705250626 19.999999999999996
endloop
endfacet
facet normal -0.0 -0.0 1.0
outer loop
vertex 10.634685516605149 7.604025771807009 19.999999999999996
vertex 9.992935370229375 7.521397914517227 19.999999999999996
vertex 10.31924952530851 7.520467838363396 19.999999999999996
endloop
endfacet
facet normal -0.0 -0.0 1.0
outer loop
vertex 8.24734941922918 11.75265058077082 19.999999999999996
vertex 8.020962490100384 11.527550501427148 19.999999999999996
vertex 7.856999942984143 11.245419191591077 19.999999999999996
endloop
endfacet
facet normal -0.0 -0.0 1.0
outer loop
vertex 10.648333333302386 12.392317306730517 19.999999999999996
vertex 10.33337878484976 12.47767200932894 19.999999999999996
vertex 10.007064629770625 12.47860208548277 19.999999999999996
endloop
endfacet
facet normal -0.0 -0.0 1.0
outer loop
vertex 11.245419191591079 12.143000057015854 19.999999999999996
vertex 10.96328788175501 12.306962604132098 19.999999999999996
vertex 10.648333333302386 12.392317306730517 19.999999999999996
endloop
endfacet
facet normal -0.0 -0.0 1.0
outer loop
vertex 12.478602085482771 9.992935370229374 19.999999999999996
vertex 12.392317306730519 9.351666666697614 19.999999999999996
vertex 12.47767200932894 9.666621215150242 19.999999999999996
endloop
endfacet
facet normal -0.0 -0.0 1.0
outer loop
vertex 12.15006468678648 11.23318289389169 19.999999999999996
vertex 11.987713078823587 11.516244279881594 19.999999999999996
vertex 11.75265058077082 11.75265058077082 19.999999999999996
endloop
endfacet
facet normal -0.0 -0.0 1.0
outer loop
vertex 12.392317306730519 9.351666666697614 19.999999999999996
vertex 12.143000057015856 8.75458080840892 19.999999999999996
vertex 12.306962604132098 9.036712118244992 19.999999999999996
endloop
endfacet
facet normal -0.0 -0.0 1.0
outer loop
vertex 12.39597422819299 10.634685516605147 19.999999999999996
vertex 12.312416294749374 10.950121507901791 19.999999999999996
vertex 12.15006468678648 11.23318289389169 19.999999999999996
endloop
endfacet
facet normal -0.0 -0.0 1.0
outer loop
vertex 11.75265058077082 11.75265058077082 19.999999999999996
vertex 11.527550501427147 11.979037509899616 19.999999999999996
vertex 11.245419191591079 12.143000057015854 19.999999999999996
endloop
endfacet
facet normal -0.0 -0.0 1.0
outer loop
vertex 12.143000057015856 8.75458080840892 19.999999999999996
vertex 11.75265058077082 8.24734941922918 19.999999999999996
vertex 11.979037509899616 8.472449498572853 19.999999999999996
endloop
endfacet
facet normal -0.0 -0.0 1.0
outer loop
vertex 7.856999942984143 11.245419191591077 19.999999999999996
vertex 7.693037395867902 10.963287881755008 19.999999999999996
vertex 7.607682693269481 10.648333333302384 19.999999999999996
endloop
endfacet
facet normal -0.0 -0.0 1.0
outer loop
vertex 8.766817106108308 12.15006468678648 19.999999999999996
vertex 8.483755720118406 11.987713078823587 19.999999999999996
vertex 8.24734941922918 11.75265058077082 19.999999999999996
endloop
endfacet
endsolid IR-sensors-holder_2
